<?xml version="1.0" encoding="UTF-8"?>
<svg xmlns="http://www.w3.org/2000/svg" xmlns:xlink="http://www.w3.org/1999/xlink" width="96pt" height="96pt" viewBox="0 0 96 96" version="1.1">
<g id="surface1">
<path style=" stroke:none;fill-rule:nonzero;fill:rgb(100%,100%,100%);fill-opacity:1;" d="M 54.738281 50.527344 C 54.738281 54.617188 51.417969 57.9375 47.328125 57.9375 C 43.234375 57.9375 39.914062 54.617188 39.914062 50.527344 C 39.914062 46.433594 43.234375 43.117188 47.328125 43.117188 C 51.417969 43.117188 54.738281 46.433594 54.738281 50.527344 Z M 54.738281 50.527344 "/>
<path style=" stroke:none;fill-rule:nonzero;fill:rgb(100%,100%,100%);fill-opacity:1;" d="M 56.589844 32.335938 L 38.0625 32.335938 C 35.367188 32.335938 33.011719 33.179688 31.496094 34.695312 C 29.980469 36.210938 29.136719 38.570312 29.136719 41.261719 L 29.136719 59.789062 C 29.136719 62.484375 29.980469 64.84375 31.664062 66.527344 C 33.347656 68.042969 35.535156 68.882812 38.230469 68.882812 L 56.589844 68.882812 C 59.285156 68.882812 61.640625 68.042969 63.15625 66.527344 C 64.84375 65.011719 65.683594 62.652344 65.683594 59.957031 L 65.683594 41.429688 C 65.683594 38.738281 64.84375 36.546875 63.328125 34.863281 C 61.640625 33.179688 59.453125 32.335938 56.589844 32.335938 Z M 47.328125 61.980469 C 40.925781 61.980469 35.875 56.757812 35.875 50.527344 C 35.875 44.125 41.09375 39.074219 47.328125 39.074219 C 53.558594 39.074219 58.949219 44.125 58.949219 50.527344 C 58.949219 56.925781 53.726562 61.980469 47.328125 61.980469 Z M 59.285156 41.261719 C 57.769531 41.261719 56.589844 40.085938 56.589844 38.570312 C 56.589844 37.050781 57.769531 35.875 59.285156 35.875 C 60.800781 35.875 61.980469 37.050781 61.980469 38.570312 C 61.980469 40.085938 60.800781 41.261719 59.285156 41.261719 Z M 59.285156 41.261719 "/>
<path style=" stroke:none;fill-rule:nonzero;fill:rgb(100%,100%,100%);fill-opacity:1;" d="M 47.664062 8.757812 C 24.757812 8.757812 6.230469 27.285156 6.230469 50.191406 C 6.230469 73.09375 24.757812 91.621094 47.664062 91.621094 C 70.570312 91.621094 89.09375 73.09375 89.09375 50.191406 C 89.261719 27.285156 70.570312 8.757812 47.664062 8.757812 Z M 69.726562 59.957031 C 69.726562 63.832031 68.378906 67.199219 66.019531 69.558594 C 63.664062 71.914062 60.292969 73.09375 56.589844 73.09375 L 38.230469 73.09375 C 34.527344 73.09375 31.15625 71.914062 28.800781 69.558594 C 26.273438 67.199219 25.09375 63.832031 25.09375 59.957031 L 25.09375 41.429688 C 25.09375 33.683594 30.316406 28.292969 38.230469 28.292969 L 56.757812 28.292969 C 60.632812 28.292969 63.832031 29.640625 66.191406 32 C 68.546875 34.359375 69.726562 37.558594 69.726562 41.429688 Z M 69.726562 59.957031 "/>
</g>
</svg>
