<?xml version="1.0" encoding="UTF-8"?>
<svg xmlns="http://www.w3.org/2000/svg" xmlns:xlink="http://www.w3.org/1999/xlink" width="96pt" height="96pt" viewBox="0 0 96 96" version="1.1">
<g id="surface1">
<path style=" stroke:none;fill-rule:nonzero;fill:rgb(100%,100%,100%);fill-opacity:1;" d="M 48 0 C 21.488281 0 0 21.488281 0 48 C 0 74.511719 21.488281 96 48 96 C 74.511719 96 96 74.511719 96 48 C 96 21.488281 74.511719 0 48 0 Z M 51.28125 59.382812 C 48.203125 59.144531 46.914062 57.621094 44.503906 56.15625 C 43.179688 63.109375 41.558594 69.78125 36.757812 73.261719 C 35.273438 62.75 38.933594 54.855469 40.628906 46.472656 C 37.734375 41.597656 40.980469 31.785156 47.085938 34.203125 C 54.601562 37.175781 40.578125 52.324219 49.988281 54.21875 C 59.820312 56.191406 63.832031 37.164062 57.738281 30.976562 C 48.929688 22.042969 32.105469 30.773438 34.175781 43.566406 C 34.679688 46.695312 37.90625 47.640625 35.464844 51.960938 C 29.828125 50.710938 28.148438 46.265625 28.363281 40.339844 C 28.710938 30.640625 37.078125 23.847656 45.46875 22.90625 C 56.082031 21.71875 66.046875 26.804688 67.421875 36.785156 C 68.972656 48.058594 62.632812 60.261719 51.28125 59.382812 Z M 51.28125 59.382812 "/>
</g>
</svg>
