<?xml version="1.0" encoding="UTF-8"?>
<svg xmlns="http://www.w3.org/2000/svg" xmlns:xlink="http://www.w3.org/1999/xlink" width="96pt" height="96pt" viewBox="0 0 96 96" version="1.1">
<g id="surface1">
<path style=" stroke:none;fill-rule:evenodd;fill:rgb(97.647059%,98.823529%,98.823529%);fill-opacity:1;" d="M 41.214844 72.101562 L 50.878906 72.101562 L 50.878906 48.714844 L 57.324219 48.714844 L 58.179688 40.65625 L 50.878906 40.65625 L 50.886719 36.621094 C 50.886719 34.519531 51.089844 33.390625 54.105469 33.390625 L 58.132812 33.390625 L 58.132812 25.332031 L 51.683594 25.332031 C 43.941406 25.332031 41.214844 29.242188 41.214844 35.816406 L 41.214844 40.65625 L 36.386719 40.65625 L 36.386719 48.714844 L 41.214844 48.714844 Z M 47.285156 91.703125 C 23.542969 91.703125 4.296875 72.457031 4.296875 48.714844 C 4.296875 24.976562 23.542969 5.730469 47.285156 5.730469 C 71.023438 5.730469 90.269531 24.976562 90.269531 48.714844 C 90.269531 72.457031 71.023438 91.703125 47.285156 91.703125 Z M 47.285156 91.703125 "/>
</g>
</svg>
